<svg xmlns="http://www.w3.org/2000/svg" width="200" height="200" viewBox="0 0 256 256">
  <path fill="#306998" d="M128 0C57.308 0 0 57.308 0 128c0 70.692 57.308 128 128 128 70.692 0 128-57.308 128-128C256 57.308 198.692 0 128 0zm0 240c-61.856 0-112-50.144-112-112S66.144 16 128 16s112 50.144 112 112-50.144 112-112 112z"/>
  <path fill="#FFD43B" d="M128 32c-53.019 0-96 42.981-96 96s42.981 96 96 96 96-42.981 96-96-42.981-96-96-96zm0 176c-44.183 0-80-35.817-80-80s35.817-80 80-80 80 35.817 80 80-35.817 80-80 80z"/>
  <path fill="#FFD43B" d="M128 64c-35.346 0-64 28.654-64 64s28.654 64 64 64 64-28.654 64-64-28.654-64-64-64zm0 112c-26.51 0-48-21.49-48-48s21.49-48 48-48 48 21.49 48 48-21.49 48-48 48z"/>
</svg>