<svg xmlns="http://www.w3.org/2000/svg" viewBox="0 0 100 100">
  <g fill="#F9A800">
    <path d="M50 0C22.4 0 0 22.4 0 50s22.4 50 50 50 50-22.4 50-50S77.6 0 50 0zm0 90C27.4 90 10 72.6 10 50S27.4 10 50 10s40 17.4 40 40-17.4 40-40 40z"/>
    <path d="M50 15c-19.2 0-35 15.8-35 35s15.8 35 35 35 35-15.8 35-35-15.8-35-35-35zm0 60c-13.8 0-25-11.2-25-25s11.2-25 25-25 25 11.2 25 25-11.2 25-25 25z"/>
  </g>
  <g fill="#FFFFFF">
    <path d="M50 25c-13.8 0-25 11.2-25 25s11.2 25 25 25 25-11.2 25-25-11.2-25-25-25zm0 45c-11 0-20-9-20-20s9-20 20-20 20 9 20 20-9 20-20 20z"/>
  </g>
</svg>