<svg id="Ebene_1" data-name="Ebene 1" xmlns="http://www.w3.org/2000/svg" viewBox="0 0 300 80"><defs><style>.cls-1,.cls-3{fill:#1a1a18;}.cls-2{fill:#ffec00;}.cls-2,.cls-3{fill-rule:evenodd;}</style></defs><path class="cls-1" d="M56,72.57c-.13-.07-.25-.14-.39-.2A4.1,4.1,0,0,0,54,72.06a3,3,0,0,0-2.42,1.1,3.12,3.12,0,0,0,.31,4.2,3,3,0,0,0,2,.73,4,4,0,0,0,2-.59L55.64,77A3.68,3.68,0,0,1,54,77.5a2.21,2.21,0,0,1-1.81-.88,2.62,2.62,0,0,1-.47-1.54,2.46,2.46,0,0,1,.81-1.91A2.24,2.24,0,0,1,54,72.63a2.63,2.63,0,0,1,1.24.26c.14.06.26.14.39.21l.3-.53Z"/><path class="cls-1" d="M56.74,72.08V78h3.17v-.59H57.46V75.25h2.32v-.59H57.47v-2h2.38v-.57Z"/><path class="cls-1" d="M61.76,72.09l-1,5.8.68.12c.09-.58.19-1.16.29-1.74s.19-1.09.27-1.64.16-1.19.23-1.78c.07.28.14.58.24.86l.18.52c.19.5.37,1,.56,1.52.26.75.52,1.49.79,2.22h.67c.37-1,.74-2,1.12-2.94.07-.19.14-.39.22-.58s.17-.47.26-.71.21-.6.31-.91A14.39,14.39,0,0,0,66.76,75c.15,1,.3,2,.47,3.05l.68-.14L67,72.08h-.72c-.21.54-.43,1.08-.63,1.62s-.32.84-.49,1.26-.32.79-.47,1.19l-.36,1.06c-.07-.23-.12-.47-.21-.69s-.24-.66-.36-1l-.4-1.18c-.26-.75-.54-1.49-.81-2.24Z"/><path class="cls-1" d="M68.82,72.08V78H72v-.59H69.54V75.25h2.32v-.59H69.55v-2h2.38v-.57Z"/><path class="cls-1" d="M73,72.3V78h.66V74.31c0-.19,0-.37,0-.56s0-.46-.06-.71a7.53,7.53,0,0,0,.69,1l1.18,1.62c.55.77,1.12,1.53,1.67,2.31l.57-.25V72.08H77v3.71A8,8,0,0,0,77.08,77a5.61,5.61,0,0,0-.29-.54,8.46,8.46,0,0,0-.52-.76c-.38-.54-.78-1.06-1.17-1.58-.51-.69-1-1.39-1.51-2.08L73,72.3Z"/><path class="cls-1" d="M78.35,72.08v.59h1.87V78H81V72.66h1.86v-.58Z"/><path class="cls-1" d="M88.76,72.48a3.78,3.78,0,0,0-1.7-.39,3.23,3.23,0,0,0-2.35.87,3,3,0,0,0,.41,4.63,3.22,3.22,0,0,0,1.74.47,4.9,4.9,0,0,0,1.52-.24l.49-.22V74.82h-.7v2.45A3.32,3.32,0,0,1,87,77.5a2.53,2.53,0,0,1-1-.18,2.08,2.08,0,0,1-.68-.43,2.42,2.42,0,0,1-.72-1.77A2.39,2.39,0,0,1,86,72.84a2.52,2.52,0,0,1,1-.2,3.21,3.21,0,0,1,1.44.37l.28-.53Z"/><path class="cls-1" d="M89.86,73.74V78h.67V75.2a2,2,0,0,1,.58-.7.87.87,0,0,1,.72-.17L92,73.7a1.77,1.77,0,0,0-.33,0,1.27,1.27,0,0,0-.91.5,2.42,2.42,0,0,0-.29.42v-.84Z"/><path class="cls-1" d="M92.76,75.9a1.71,1.71,0,0,1,.66-1.54,1.17,1.17,0,0,1,1.29,0,1.67,1.67,0,0,1,.67,1.45,2.4,2.4,0,0,1,0,.42,1.57,1.57,0,0,1-.8,1.27,1.11,1.11,0,0,1-.48.11,1.16,1.16,0,0,1-.74-.26A1.72,1.72,0,0,1,92.76,75.9Zm-.71,0a2.29,2.29,0,0,0,.64,1.69,1.94,1.94,0,0,0,1.33.49,2,2,0,0,0,1.53-.69,2.72,2.72,0,0,0,.53-1.6,2.15,2.15,0,0,0-1.16-2,1.94,1.94,0,0,0-.81-.17,2.21,2.21,0,0,0-1,.26,2.23,2.23,0,0,0-1,2Z"/><path class="cls-1" d="M96.86,73.74v3.09a1.67,1.67,0,0,0,.1.64,1.14,1.14,0,0,0,1.07.61,1.7,1.7,0,0,0,1.17-.5l.32-.31V78h.64V73.74h-.67v3a2.7,2.7,0,0,1-.85.71,1,1,0,0,1-.4.09.7.7,0,0,1-.37-.11c-.28-.17-.31-.43-.31-.78V73.74Z"/><path class="cls-1" d="M101.84,75a1.71,1.71,0,0,1,.76-.7,1.21,1.21,0,0,1,.41-.09,1.13,1.13,0,0,1,.5.13.91.91,0,0,1,.34.27,2.18,2.18,0,0,1,0,2.46,1.16,1.16,0,0,1-.93.49,1.07,1.07,0,0,1-.86-.43l-.18-.21V75Zm-.66-1.24v6.18h.68c0-.37,0-.75,0-1.11s0-.85,0-1.27a1.56,1.56,0,0,0,1.15.51,1.9,1.9,0,0,0,1.78-1.44,2.69,2.69,0,0,0,.13-.84,2.43,2.43,0,0,0-.57-1.62,1.6,1.6,0,0,0-1.16-.51,1.55,1.55,0,0,0-1.1.44c-.1.11-.16.2-.25.31v-.65Z"/><path class="cls-1" d="M41.19,74.6V73.2h.67a2.2,2.2,0,0,1,.36,0,.65.65,0,0,1,.48.66.61.61,0,0,1-.17.45.91.91,0,0,1-.67.24h-.67Zm3.42,3.34-1-1.87a2.07,2.07,0,0,0-.62-.7.38.38,0,0,0-.16-.06l.27,0a1.63,1.63,0,0,0,.38-.14,1.57,1.57,0,0,0,.42-.35,1.7,1.7,0,0,0,.33-1,1.73,1.73,0,0,0-.26-.94,2.26,2.26,0,0,0-2-.73c-.53,0-1.05,0-1.56,0h-.65v5.86h1.48v-2.2h.22a.79.79,0,0,1,.32.08c.14.07.24.25.39.55l.79,1.57Z"/><path class="cls-1" d="M48.59,76.71V74.79h1.49L50,77.63a4.39,4.39,0,0,1-.69.18,5.18,5.18,0,0,1-.74.14,6,6,0,0,1-.73.06h0a3.24,3.24,0,0,1-2.1-.67,2.81,2.81,0,0,1-1-2.26,3,3,0,0,1,.59-1.84,3.38,3.38,0,0,1,.83-.76A3.23,3.23,0,0,1,47.94,72a5.16,5.16,0,0,1,1.91.36l-.38,1.06-.38-.13a3.69,3.69,0,0,0-.94-.15,2.28,2.28,0,0,0-.84.17,1.88,1.88,0,0,0-1.07,1.76,1.79,1.79,0,0,0,.13.71,1.72,1.72,0,0,0,1.45,1H48a1.22,1.22,0,0,0,.58-.14Z"/><path class="cls-1" d="M38.84,74.41H36.32V73.29h2.52V72.08h-4v5.86h4v-1.2H36.32V75.58h2.52Z"/><path class="cls-1" d="M23.82,74.41H21.3V73.29h2.52V72.08h-4v5.86h4v-1.2H21.3V75.58h2.52Z"/><path class="cls-1" d="M26.24,72.08H24.7v5.86h4.09V76.66H26.24V72.08Z"/><path class="cls-1" d="M15.58,76.78a1.93,1.93,0,0,0,1.49-.61A1.74,1.74,0,0,0,17.49,75a1.78,1.78,0,0,0-.28-1,1.86,1.86,0,0,0-1.71-.73h-.68v3.5Zm-.76,1.16H13.26V72.09H15c.27,0,.54,0,.81,0h.51a3.26,3.26,0,0,1,1.67.57A2.76,2.76,0,0,1,19.08,75,3.07,3.07,0,0,1,18.9,76,2.85,2.85,0,0,1,17,77.8a4.07,4.07,0,0,1-1.28.15h-.94Z"/><path class="cls-1" d="M31.05,74.44h.75c.4,0,.57-.06.68-.24a.58.58,0,0,0,.11-.34.7.7,0,0,0-.13-.42.85.85,0,0,0-.72-.23h-.69Zm.76,2.38a1.34,1.34,0,0,0,.42-.06.54.54,0,0,0,.37-.54.64.64,0,0,0-.11-.36c-.17-.28-.49-.29-.79-.29h-.65V76.8Zm-.76,1.12H29.56V72.08H32a2.39,2.39,0,0,1,1.59.41,1.39,1.39,0,0,1,.47,1.15,1.51,1.51,0,0,1,0,.3,1.37,1.37,0,0,1-.5.86,1.59,1.59,0,0,1-.41.21,1.64,1.64,0,0,1,.7.45,1.38,1.38,0,0,1,.32.92,1.43,1.43,0,0,1-.75,1.33,3.12,3.12,0,0,1-1.58.24Z"/><path class="cls-1" d="M9.93,74.41H7.4V73.29H9.93V72.08h-4v5.86h4v-1.2H7.4V75.58H9.93Z"/><rect class="cls-1" x="10.79" y="72.08" width="1.55" height="5.86"/><rect class="cls-1" y="72.08" width="1.53" height="1.53"/><path class="cls-1" d="M5,72.08H3.45v2.33H0v3.53H1.53V75.6H3.45v2.34H5Z"/><path class="cls-2" d="M84.73,32.56A32.41,32.41,0,1,1,52.33,0a32.43,32.43,0,0,1,32.4,32.54Z"/><path class="cls-3" d="M61.2,30.09H57.65c-.19-1.59.26-3.37-1.2-3.37-1.91-.06-1.71,3-1.71,6,0,2.16,0,4.38.38,5.26a1.58,1.58,0,0,0,1.14.83c1.71.19,1.33-2.35,1.39-4.06H61.2c0,2.6-.25,5.52-2,6.66a5.64,5.64,0,0,1-7.3-1.59,5.77,5.77,0,0,1-.63-2.22c-.38-3-.44-9.64.63-12a5.11,5.11,0,0,1,2.92-2.16c3.62-1,6.85,1.33,6.34,6.6Z"/><path class="cls-3" d="M33.87,23.74v6.73a19.55,19.55,0,0,0,2.79.06V23.68h3.55v18H36.66V34.4a13.46,13.46,0,0,0-2.79-.07v7.43H30.32c.06-6-.07-12.18.06-18Z"/><path class="cls-3" d="M48.2,23.74c1.14,6.09,2.16,12.12,3.3,18H48c-.19-1.21-.25-2.1-.38-3.37a19.55,19.55,0,0,0-2.79-.06c-.38,1-.26,2.35-.57,3.49H40.72c1-6.22,2.35-11.8,3.17-18,1.39-.07,2.92-.07,4.31-.07ZM44.9,35h2.16c-.19-2.35-.63-5.14-1-7.61C45.73,30,45.28,32.43,44.9,35Z"/><path class="cls-3" d="M70,23.74v3.55H65.33v3.18c1.2.19,3,0,4.37.06v3.68H65.33V38c1.33.19,3.17,0,4.69.06v3.68H61.78v-18c2.72.06,5.51.06,8.24.06Z"/><path class="cls-3" d="M63.87,2.18c-9.07,3.87-15.54,10-19,19.47H21.75A32.34,32.34,0,0,1,63.87,2.18Z"/><path class="cls-3" d="M83,21.65H60.57a30.61,30.61,0,0,0-6-10.4c3.11-3.49,11.8-7.42,12.75-7.61A32.91,32.91,0,0,1,83,21.65Z"/><path class="cls-3" d="M75.86,23.74c.63,3.74,1.58,7.61,1.77,11.42.76-3.74,1.33-7.61,2.09-11.42h3.94a33.53,33.53,0,0,1-.19,18H81.25c.19-4.38.19-8.88.38-13.58-.95,4.57-1.72,9.07-2.41,13.58H76.49c-.63-4.57-1.59-9-2.35-13.58-.06,4.38.07,9.2.26,13.58H70.91v-18Z"/><path class="cls-3" d="M60.57,43.78h22.2C75.86,61.67,57.4,68.65,41.54,63.07c9.26-3.56,15.48-9.9,19-19.29Z"/><path class="cls-3" d="M21.88,43.78h23a34.37,34.37,0,0,0,6.09,10.15,32.1,32.1,0,0,1-13.19,7.61A32.68,32.68,0,0,1,21.88,43.78Z"/><path class="cls-3" d="M29.24,29.7H25.88c-.19-1.33.06-3-1.14-3.1s-1.4,1.14-1.53,2.6c-.06,1.9-.06,5.13,0,7,.07,1.39.57,2.53,1.34,2.53,1.52.07,1.33-2,1.39-3.74-.25-.19-1,0-1.52-.06V32h4.95v9.77H27.15c-.38-.07-.26-.58-.38-1-.64.19-1,1-1.78,1.21a4.8,4.8,0,0,1-3.17-.64,3.19,3.19,0,0,1-1.21-1.77c-.82-3.3-1.14-10-.06-13.76a5.28,5.28,0,0,1,2.79-2.35c4.12-1.08,6.28,2,5.9,6.21Z"/></svg>